<?xml version="1.0" encoding="utf-8"?><svg viewBox="0 0 800 800" xmlns="http://www.w3.org/2000/svg" xmlns:xlink="http://www.w3.org/1999/xlink"><style>:root>svg{display:none}:root>svg:target{display:block}</style><svg viewBox="0 0 192 192" id="discord" xmlns="http://www.w3.org/2000/svg"><path d="M68 138l-8 16c-10.19-4.246-20.742-8.492-31.96-15.8-3.912-2.549-6.284-6.88-6.378-11.548-.488-23.964 5.134-48.056 19.369-73.528 1.863-3.334 4.967-5.778 8.567-7.056C58.186 43.02 64.016 40.664 74 39l6 11s6-2 16-2 16 2 16 2l6-11c9.984 1.664 15.814 4.02 24.402 7.068 3.6 1.278 6.704 3.722 8.567 7.056 14.235 25.472 19.857 49.564 19.37 73.528-.095 4.668-2.467 8.999-6.379 11.548-11.218 7.308-21.769 11.554-31.96 15.8l-8-16m-68-8s20 10 40 10 40-10 40-10"/><ellipse cx="71" cy="101" rx="13" ry="15"/><ellipse cx="121" cy="101" rx="13" ry="15"/></svg><svg stroke-width="2" stroke-linecap="round" stroke-linejoin="round" viewBox="0 0 24 24" id="github" xmlns="http://www.w3.org/2000/svg"><path d="M9 19c-5 1.5-5-2.5-7-3m14 6v-3.87a3.37 3.37 0 00-.94-2.61c3.14-.35 6.44-1.54 6.44-7A5.44 5.44 0 0020 4.77 5.07 5.07 0 0019.91 1S18.73.65 16 2.48a13.38 13.38 0 00-7 0C6.27.65 5.09 1 5.09 1A5.07 5.07 0 005 4.77a5.44 5.44 0 00-1.5 3.78c0 5.42 3.3 6.61 6.44 7A3.37 3.37 0 009 18.13V22"/></svg><svg viewBox="0 0 502.664 502.664" id="icon" xmlns="http://www.w3.org/2000/svg"><path d="M153.821 358.226L0 274.337v-46.463l153.821-83.414v54.574L46.636 250.523l107.185 53.431v54.272zm26.273 29.358L282.103 115.08h32.227L212.084 387.584h-31.99zm168.749-29.358v-54.272l107.164-52.999-107.164-52.59v-53.927l153.821 83.522v46.183l-153.821 84.083z"/></svg><svg viewBox="0 0 24 24" id="location" xmlns="http://www.w3.org/2000/svg"><path fill-rule="evenodd" clip-rule="evenodd" d="M8.25 9a3.75 3.75 0 117.5 0 3.75 3.75 0 01-7.5 0zM12 6.75a2.25 2.25 0 100 4.5 2.25 2.25 0 000-4.5z"/><path fill-rule="evenodd" clip-rule="evenodd" d="M5.456 8.127a6.403 6.403 0 016.382-5.877h.324a6.403 6.403 0 016.382 5.877 6.895 6.895 0 01-1.534 4.931l-3.595 4.396a1.828 1.828 0 01-2.83 0L6.99 13.058a6.895 6.895 0 01-1.534-4.93zm6.382-4.377a4.903 4.903 0 00-4.887 4.5 5.395 5.395 0 001.2 3.859l3.595 4.396c.131.16.377.16.508 0l3.595-4.396a5.395 5.395 0 001.2-3.859 4.903 4.903 0 00-4.887-4.5h-.324z"/><path d="M7.67 16.335a.75.75 0 10-1.34-.67l-2 4A.75.75 0 005 20.75h14a.75.75 0 00.67-1.085l-2-4a.75.75 0 10-1.34.67l1.457 2.915H6.213l1.457-2.915z"/></svg><svg stroke-width="2" stroke-linecap="round" stroke-linejoin="round" viewBox="0 0 24 24" id="mail" xmlns="http://www.w3.org/2000/svg"><path d="M4 4h16c1.1 0 2 .9 2 2v12c0 1.1-.9 2-2 2H4c-1.1 0-2-.9-2-2V6c0-1.1.9-2 2-2z"/><path d="M22 6l-10 7L2 6"/></svg><svg viewBox="0 0 32 32" id="phone" xmlns="http://www.w3.org/2000/svg"><path d="M13.6 8.5L9.5 4.3c-.5-.4-1.2-.4-1.7 0L4.7 7.5c-.7.6-.9 1.6-.6 2.4.8 2.3 2.9 6.9 7 11s8.7 6.1 11 7c.9.3 1.8.1 2.5-.5l3.1-3.1c.5-.5.5-1.2 0-1.7l-4.1-4.1c-.5-.5-1.2-.5-1.7 0L19.4 21s-2.8-1.2-5-3.3-3.3-5-3.3-5l2.5-2.5c.5-.5.5-1.3 0-1.7z"/></svg><svg viewBox="0 0 24 24" id="telegram" xmlns="http://www.w3.org/2000/svg"><path fill-rule="evenodd" clip-rule="evenodd" d="M5.788 14.02a.746.746 0 00.132.031 456.056 456.056 0 01.844 2.002c.503 1.202 1.01 2.44 1.121 2.796.139.438.285.736.445.94.083.104.178.196.29.266a.88.88 0 00.186.088c.32.12.612.07.795.009a1.313 1.313 0 00.304-.15L9.91 20l2.826-1.762 3.265 2.502c.048.037.1.068.156.093.392.17.772.23 1.13.182.356-.05.639-.199.85-.368a1.992 1.992 0 00.564-.728l.009-.022.003-.008.002-.004v-.002l.001-.001a.756.756 0 00.04-.133l2.98-15.025a.752.752 0 00.014-.146c0-.44-.166-.859-.555-1.112-.334-.217-.705-.227-.94-.209-.252.02-.486.082-.643.132a3.458 3.458 0 00-.26.094l-.011.005-16.714 6.556-.002.001a2.296 2.296 0 00-.167.069 2.522 2.522 0 00-.38.212c-.227.155-.75.581-.661 1.285.07.56.454.905.689 1.071.128.091.25.156.34.199.04.02.126.054.163.07l.01.003 3.169 1.067zm14.138-9.152h-.002a.785.785 0 01-.026.011L3.164 11.444a.818.818 0 01-.026.01l-.01.003a1.126 1.126 0 00-.09.04.851.851 0 00.086.043l3.142 1.058a.75.75 0 01.16.076l10.377-6.075.01-.005a1.59 1.59 0 01.124-.068c.072-.037.187-.091.317-.131.09-.028.357-.107.645-.014a.854.854 0 01.588.689.84.84 0 01.003.424c-.07.275-.262.489-.438.653-.15.14-2.095 2.016-4.014 3.868l-2.613 2.52-.465.45 5.872 4.502a.536.536 0 00.251.04.229.229 0 00.117-.052.495.495 0 00.103-.12l.002-.001 2.89-14.573a1.858 1.858 0 00-.267.086h-.002zm-8.461 12.394l-1.172-.898-.284 1.805 1.456-.907zm-2.247-2.68l1.165-1.125 2.613-2.522.973-.938-6.52 3.817.035.082a339.2 339.2 0 011.22 2.92l.283-1.8a.747.747 0 01.231-.435z"/></svg></svg>